<svg width="1000" height="1000" viewBox="0 0 1000 1000" fill="none" xmlns="http://www.w3.org/2000/svg">
    <g opacity="0.45">
        <path d="M37.142 114.897C10.5484 131.455 2.52012 161.06 3.02189 240.841C3.02189 292.523 5.53072 318.615 14.0607 352.234C38.1455 449.577 79.7921 528.856 129.969 572.51L155.559 595.089L146.025 617.669C120.435 675.874 108.895 728.058 108.393 790.277C107.891 880.094 117.926 894.645 185.163 894.143C263.438 893.14 374.831 847.479 435.043 790.779C472.173 756.157 489.735 728.56 496.258 695.945C504.286 652.793 485.721 585.556 455.113 546.418L443.071 530.863L463.643 490.722C483.714 451.584 484.216 449.075 484.216 399.4C484.216 353.739 482.71 345.711 470.166 320.12C432.534 242.848 328.668 166.579 205.234 124.932C167.099 111.886 147.531 108.374 105.382 106.869C59.2197 104.862 50.6897 105.865 37.142 114.897Z" fill="#D1DBFE"/>
        <path d="M825.834 115.696C693.87 150.318 570.435 235.619 528.789 320.418C516.244 346.008 514.739 354.036 514.739 399.697C514.739 449.372 515.241 451.881 535.312 491.019L555.884 531.161L537.82 558.256C503.199 608.935 493.163 669.649 510.725 720.829C523.269 758.462 581.976 814.66 640.682 844.766C700.894 875.374 764.619 893.939 814.795 894.441C859.954 894.943 876.011 886.914 886.548 857.812C902.604 814.158 889.057 703.769 858.951 632.518L843.396 595.387L868.484 573.811C918.661 529.154 960.809 449.874 984.894 352.531C1000.95 288.807 1000.95 178.919 985.396 144.799C978.873 130.248 968.837 118.707 959.304 113.689C938.23 102.65 870.491 103.654 825.834 115.696Z" fill="#D1DBFE"/>
    </g>
</svg>
